<svg xmlns="http://www.w3.org/2000/svg" width="33.553" height="36.615" viewBox="0 0 33.553 36.615">
  <g id="Group_54" data-name="Group 54" transform="translate(-215.187 -32.592)">
    <path id="Path_81" data-name="Path 81" d="M215.189,54.219a8.463,8.463,0,0,1,1.544-5.523c1.792-2.206,4.889-2.691,7.558-3.67a18.5,18.5,0,0,0,10.191-9.26c.694-1.447,1.61-3.267,3.212-3.17,1.344.081,2.145,1.527,2.508,2.824a15.238,15.238,0,0,1-2.343,12.911,26.808,26.808,0,0,0-2.792,3.863,4.186,4.186,0,0,0,.208,4.5c1.636,1.88,4.651.941,7.133,1.163a7.2,7.2,0,0,1,6.331,6.787,3.5,3.5,0,0,1-.585,2.2c-1.972,2.59-9.624,1.141-12.538,1.423-2.894.281-5.961,1.153-8.881.888C219.941,68.543,215.295,60.449,215.189,54.219Z" fill="#2c49d8"/>
  </g>
</svg>
