<svg xmlns="http://www.w3.org/2000/svg" width="26.593" height="44.364" viewBox="0 0 26.593 44.364">
  <g id="Group_53" data-name="Group 53" transform="translate(-81.512 -330.202)">
    <path id="Path_80" data-name="Path 80" d="M83.019,336.429a10.122,10.122,0,0,1,3.421-4.95c2.15-1.471,4.985-1.463,7.549-1.005a18.76,18.76,0,0,1,9.972,4.832,12.273,12.273,0,0,1,3.735,10.185c-.614,4.278-3.9,8.158-3.2,12.424.408,2.489,2.121,4.551,3.011,6.911.986,2.616.821,5.829-1.056,7.9-4.079,4.5-7.129-.308-9.478-3.224-2.149-2.668-5.488-3.773-7.923-6.142A26,26,0,0,1,83.019,336.429Z" fill="#0fa958"/>
  </g>
</svg>
