<svg xmlns="http://www.w3.org/2000/svg" width="89.32" height="66.681" viewBox="0 0 89.32 66.681">
  <g id="Group_52" data-name="Group 52" transform="translate(-139.329 -277.992)">
    <path id="Path_79" data-name="Path 79" d="M157.656,315.269c3.786-2.31,8.234-3.3,12.641-3.8,5.85-.67,12.449-.854,16.464-5.161,3.173-3.4,3.732-8.4,5.422-12.737,4.049-10.391,15.882-17.117,26.882-15.278a5.562,5.562,0,0,1,2.18.724c1.575,1.039,1.881,3.3,1.312,5.1a22.241,22.241,0,0,1-2.8,4.894c-1,1.6-1.818,3.49-1.4,5.331.735,3.267,4.642,4.494,7.146,6.718a9.441,9.441,0,0,1-4.272,16.287,36.258,36.258,0,0,1-4.746.4,20.274,20.274,0,0,0-17.252,13.75c-.813,2.572-1.136,5.388-2.718,7.572a11.292,11.292,0,0,1-3.973,3.209,21.082,21.082,0,0,1-16.362,1.317c-5.821-1.962-11.139-6.545-17.237-5.8-4.592.559-8.643,4.141-13.248,3.707a7.24,7.24,0,0,1-5.4-3.207,6.148,6.148,0,0,1-.237-6.186c2.229-3.93,8.034-3.46,10.187-7.048.964-1.607,1.234-3.5,2.354-5.105A16.735,16.735,0,0,1,157.656,315.269Z" fill="#fe6b2b"/>
  </g>
</svg>
