<svg xmlns="http://www.w3.org/2000/svg" width="232.436" height="157.521" viewBox="0 0 232.436 157.521">
  <g id="Group_65" data-name="Group 65" transform="translate(86.054 328.761) rotate(180)">
    <path id="Path_56" data-name="Path 56" d="M-30.355,206.575c8.842,5.824,18.316,9.967,28.01,13.658,8.622,3.283,17.68,5.3,26.145,9.019,6.882,3.027,13.649,6.331,20.61,9.158,9.6,3.9,19.336,7.454,29,11.182a30.318,30.318,0,0,1,4.354,1.96c2.1,1.219,2.67,2.64,1.994,4.889-1.217,4.046-3.213,7.781-4.838,11.665-.754,1.8-2.342,2.054-3.989,1.962-3.523-.2-7.039-.524-10.562-.732a103.73,103.73,0,0,1-15.5-2.553Q19.8,261.43-5.252,255.972A110.548,110.548,0,0,1-19.294,251.7c-9.047-3.288-18.577-4.527-27.9-6.637a8.957,8.957,0,0,0-1.346-.1c-.128,1.205.838,1.42,1.449,1.736a91.923,91.923,0,0,1,10.048,6.474c6.949,4.816,14.545,8.5,21.9,12.613,15.627,8.728,31.766,16.451,47.646,24.681a69.471,69.471,0,0,1,10.916,7c3.855,3.019,7.842,5.87,11.767,8.8,1.187.886,2.393,1.752,3.527,2.7,2.682,2.248,2.721,3.093,1.035,6.084a37.214,37.214,0,0,1-11.444,12.011,8.431,8.431,0,0,1-6.094,1.635,82.5,82.5,0,0,1-13.028-2.72c-1.315-.371-2.606-.862-3.942-1.113-12.2-2.3-23.565-6.979-34.718-12.215-8.044-3.777-16.03-7.676-24.228-11.115-9.227-3.871-17.167-9.8-25.252-15.558a118.052,118.052,0,0,1-31.577-33.693c-3.3-5.226-5.566-10.962-8.183-16.524-.582-1.237-1.143-2.484-1.7-3.732a16.829,16.829,0,0,0-9.422-8.853,129.507,129.507,0,0,0-19.828-6.286,47.835,47.835,0,0,1-11.9-4.176c-4.757-2.63-5.533-4.167-4.292-9.374a52.864,52.864,0,0,1,6.622-16.4c2.022-3.168,3.083-3.535,6.837-2.848,8.958,1.638,17.192,5.279,25.259,9.278a98.874,98.874,0,0,0,11.369,4.635c2.21.773,2.838.5,4.323-1.485a122.9,122.9,0,0,1,10.3-11.388c4.884-5.068,11.419-7.371,17.938-9.517,2.92-.961,5.921-1.676,8.845-2.627a36.5,36.5,0,0,1,19.92-.7q27.945,6.58,56,12.647c4.1.887,8.142,2.148,12.267,3.017,10.37,2.185,20.9,3.376,31.338,5.147a73.891,73.891,0,0,1,18.675,5.274c1.176.541,2.382,1.1,2.193,2.668-.776,6.433-.1,12.992-1.824,19.352-1.121,4.135-1.786,4.776-5.984,5.116-3.229.262-6.376-.422-9.51-.845-7.669-1.034-15.374-1.8-23-3.186-6.493-1.18-13.046-2.031-19.57-3.045-1.463-.227-2.923-.483-4.37-.79q-24.248-5.139-48.489-10.3Z" fill="#df058d"/>
  </g>
</svg>
