<svg xmlns="http://www.w3.org/2000/svg" width="286.674" height="304.06" viewBox="0 0 286.674 304.06">
  <g id="Group_60" data-name="Group 60" transform="translate(167.151 304.059) rotate(-90)">
    <path id="Path_53" data-name="Path 53" d="M4.662-40.8C14.208-62.778,21.349-79.26,28.523-95.727c12.944-29.715,37.263-46.013,67.055-54.424a547.5,547.5,0,0,1,81.542-16.158c34.436-4.265,62.7,7.783,84.816,33.837C287.89-101.9,307.52-67.365,303.547-26.217c-5.221,54.064-28.083,99.41-77.739,127.389-5.551,3.128-11.6,3.937-17.727,4.7-21.391,2.663-42.635,5.73-63.76,10.534-28.994,6.594-57.236,3.071-82.754-13.826-2.986-1.979-6.31-3.774-8.611-6.408C30.6,70.569,8.59,44.866,2.725,9.507-.448-9.627-2.011-28.269,4.662-40.8Z" fill="#fe6b2b"/>
  </g>
</svg>
