<svg xmlns="http://www.w3.org/2000/svg" width="377.5" height="256.583" viewBox="0 0 377.5 256.583">
  <g id="Group_57" data-name="Group 57" transform="translate(-327.936 160.236) rotate(-26)">
    <path id="Path_62" data-name="Path 62" d="M332.382,174.311a196.994,196.994,0,0,0,20.473,19.251,44.912,44.912,0,0,0,14.84,8.337c10.687,3.331,21.385,4.786,32.445,1.559,8.888-2.594,17.817-4.975,25.624-10.2,8.164-5.468,15.956-11.434,23.689-17.5a169.417,169.417,0,0,1,29.46-18.325c5.648-2.8,11.2-5.79,17.2-7.849a18.535,18.535,0,0,1,5.51-1.446c6.945-.149,13.621-2.058,20.441-3.014,5.377-.754,10.553.559,15.714,1.372,19.383,3.054,37.25,9.783,53.513,21.186,8.532,5.983,16.894,12.17,25.007,18.643,15.716,12.539,30.716,25.917,43.939,41.152.289.332.593.654.857,1.005,2.082,2.765,2.141,3.822-.614,5.84-3.566,2.613-6.654,5.77-10.145,8.436-2.568,1.961-5.038,4.021-7.516,6.088-3.121,2.6-4.444,2.491-6.945-.622-12.345-15.36-26.572-28.977-40.042-43.294a80.827,80.827,0,0,0-19.612-14.762,181.262,181.262,0,0,0-24.24-11.44,72.537,72.537,0,0,0-28.009-4.632,81.6,81.6,0,0,0-38.612,10.824,168.941,168.941,0,0,0-24.869,17.311A176.3,176.3,0,0,1,438.128,217.8c-8.559,5.117-16.95,10.522-25.569,15.534-19.355,11.256-39.313,11.421-59.567,2.633-9.954-4.319-18.43-10.785-26.065-18.456q-9.943-9.99-19.479-20.36c-4.059-4.438-7.633-9.291-11.81-13.638-2.059-2.143-1.893-3.042.337-5.157,5.325-5.05,10.714-10.031,16.087-15.03a18.836,18.836,0,0,1,1.713-1.381c3.731-2.73,4.173-2.72,7.336.544C324.485,165.971,327.8,169.5,332.382,174.311Z" fill="#0fa958"/>
  </g>
</svg>
