<svg xmlns="http://www.w3.org/2000/svg" viewBox="0 0 925.79 403.4"><defs><style>.cls-1{fill:#66003a;}.cls-2{fill:#5e0035;}.cls-3{fill:#800048;}</style></defs><g id="Laag_2" data-name="Laag 2"><g id="Laag_1-2" data-name="Laag 1"><polyline class="cls-1" points="465.93 88 451.93 56 441.93 83 381.93 115 431.93 0 474.1 0 502.93 68"/><polygon class="cls-2" points="516.93 103 481.93 129 563.93 211 516.93 103"/><polygon class="cls-3" points="334.93 159 341.62 211 588.93 28 502.93 68 334.93 159"/><path class="cls-2" d="M30.6,263V366.2q0,5,2.8,7.6c1.87,1.74,4.53,2.6,8,2.6H89.6l1.4,23Q76.8,401,61.3,401.3t-30.9.3q-15,0-22.7-8.1T0,372.8V263Z"/><path class="cls-2" d="M127.8,258.6q8.8,0,8.8,9v10.6q0,9-8.8,9H115q-8.81,0-8.8-9V267.6q0-9,8.8-9Zm8.2,43.6V401H106.6V302.2Z"/><path class="cls-2" d="M198.6,299.6q7.2,0,15.6.5t16.4,1.3q8,.81,14.2,2l-2,18.4q-9.6-.19-19.3-.3t-18.9-.1a106.78,106.78,0,0,0-12,.2q-4.2.4-5.9,1.9c-1.14,1-1.7,2.77-1.7,5.3,0,2.94,1,4.9,3,5.9a55.32,55.32,0,0,0,10,3.3l25.8,6.2q12.39,3.19,18.4,9.5t6,18.9q0,12.4-4.6,19T229,400.7q-10,2.51-25.8,2.5-6.21,0-18.4-.6a238.32,238.32,0,0,1-26.8-3l2-18.4c2.4.13,5.46.24,9.2.3s7.8.1,12.2.1h13.2q10.2,0,15.6-.5c3.6-.33,6.06-1.1,7.4-2.3a6.91,6.91,0,0,0,2-5.4c0-2.93-1.14-4.93-3.4-6a61.62,61.62,0,0,0-10.8-3.4l-25-6.2q-9.41-2.6-14.6-6.6a21.33,21.33,0,0,1-7.3-9.8,40.54,40.54,0,0,1-2.1-13.8q0-10.2,4.1-16.3t13.4-8.9Q183.2,299.61,198.6,299.6Z"/><path class="cls-2" d="M333.39,302.2v19.4h-74.6V303.2l19.2-1Zm-27.6-27.4v94.6c0,3.6.84,6.17,2.5,7.7s4.44,2.3,8.3,2.3h12.8l3.2,20a60.94,60.94,0,0,1-8.8,2.1q-5.19.9-10.4,1.4c-3.46.33-6.4.5-8.8.5q-13.39,0-20.89-7.2T276.2,376L276,274.8Z"/><path class="cls-3" d="M441.79,263v24H328.19V263Zm-41.6,0V401h-30.6V263Z"/><path class="cls-3" d="M465.19,302.2l3.6,19.6,2.8,2.6V401H442V302.2Zm48.2-2.6-2.8,27.4h-8.2a57.48,57.48,0,0,0-14.6,2q-7.6,2-19.2,6l-2-16.6a85.08,85.08,0,0,1,21-14,49.82,49.82,0,0,1,20.6-4.8Z"/><path class="cls-3" d="M605.39,340.2l-.2,16.6-44,.2q-5.4,0-7.7,2.6a10.2,10.2,0,0,0-2.3,7v4.8c0,3.34.93,5.9,2.8,7.7s4.87,2.7,9,2.7a33.4,33.4,0,0,0,11.3-2.2,55.74,55.74,0,0,0,12.1-6.2A50.92,50.92,0,0,0,597,364v12.8a80.21,80.21,0,0,1-5.3,7.5,53.32,53.32,0,0,1-21.5,16.1,42.33,42.33,0,0,1-16.4,3,39.53,39.53,0,0,1-16.2-3.2,26.3,26.3,0,0,1-11.4-9.4q-4.2-6.19-4.2-15.4V365.2q0-11.81,8-18.4t22-6.6ZM579,299.6q12.4,0,21,3.3a24.88,24.88,0,0,1,13.1,11.2q4.5,7.9,4.5,21.7V401H594l-4.2-21.4-2-3v-41q0-7-3.3-10.2T572,322.2q-7.61,0-19,.5t-23.4,1.3l-2.8-19.6q7.2-1.39,16.6-2.4t18.8-1.7Q571.6,299.59,579,299.6Z"/><path class="cls-3" d="M686.79,299.6q5.4,0,11.8.5a111.69,111.69,0,0,1,12.9,1.8,56.77,56.77,0,0,1,11.9,3.7l-3.2,18.6q-8-.19-15.3-.4t-13.1-.2q-9,0-14.2,2.4a14.46,14.46,0,0,0-7.5,8.5q-2.3,6.11-2.3,16.9,0,11,2.3,17.2a14.42,14.42,0,0,0,7.5,8.6q5.2,2.4,14.2,2.4c2.13,0,4.87-.06,8.2-.2s6.93-.3,10.8-.5,7.67-.57,11.4-1.1l2.8,18.8a70.77,70.77,0,0,1-18.2,5.2,129.75,129.75,0,0,1-20.2,1.6q-18.4,0-29.3-5.1a30.68,30.68,0,0,1-15.7-16.5q-4.8-11.4-4.8-30.4t4.9-30.4a30.68,30.68,0,0,1,15.9-16.4Q668.58,299.6,686.79,299.6Z"/><path class="cls-3" d="M772.19,261l.2,57.8a113.61,113.61,0,0,1-.8,13.6,108.62,108.62,0,0,1-2.4,13q1.39,6.21,2.2,12.7a100.25,100.25,0,0,1,.8,12.1V401h-29.6V261ZM786,337v18H763V337Zm52.2-34.8-25.8,34.4a28.35,28.35,0,0,1-4.6,5.4,39.1,39.1,0,0,1-4.6,3.8v.8a20.12,20.12,0,0,1,4.6,4.2,39.11,39.11,0,0,1,4.6,6.4l29.2,43.8h-33l-33.8-55.6,30.4-43.2Z"/><path class="cls-3" d="M877.59,302.2l3.6,19.6,2.8,2.6V401h-29.6V302.2Zm48.2-2.6L923,327h-8.2a57.42,57.42,0,0,0-14.6,2q-7.61,2-19.2,6l-2-16.6a84.71,84.71,0,0,1,21-14,49.74,49.74,0,0,1,20.6-4.8Z"/></g></g></svg>