<svg xmlns="http://www.w3.org/2000/svg" xmlns:xlink="http://www.w3.org/1999/xlink" width="522.107" height="522.107" viewBox="0 0 522.107 522.107">
  <defs>
    <clipPath id="clip-path">
      <rect id="Rectangle_4" data-name="Rectangle 4" width="369.185" height="369.185" fill="#df058d"/>
    </clipPath>
  </defs>
  <g id="Group_22" data-name="Group 22" transform="translate(522.107 261.053) rotate(135)" clip-path="url(#clip-path)">
    <path id="Path_54" data-name="Path 54" d="M115.16,77.567c-1.311-9.091,1.652-17.615,4.241-26.019,5.252-17.05,14.938-31.423,28.187-43.359C153.277,3.063,160.5,1.533,167.7.083c1.8-.363,3.351.517,4.671,1.7,3.294,2.959,6.069,6.3,7.222,10.687,1.94,7.383,3.924,14.757,5.671,22.186,1.384,5.882-.236,11.492-2.546,16.82-2.724,6.28-5.478,12.574-9.3,18.314a44.346,44.346,0,0,0-4.147,8.361c-2.83,7.161-7.62,12.762-13.57,17.516-6.83,5.457-13.778,10.721-21.913,14.126-2.265.947-2.553,2.316-1.736,4.438q7.209,18.734,14.308,37.511c1.655,4.366,3.26,8.753,4.782,13.167a34.968,34.968,0,0,0,3.156,7.069c.233-6.116-.288-11.45.727-16.627,2.06-10.513,3-21.363,7.7-31.173C168.31,112.5,176.5,103.2,188.439,97.449c5.97-2.879,11.781-2.4,17.677-.358,3.168,1.1,4.868,3.88,6.128,6.742,4.518,10.257,6.414,20.792,2.924,31.819a82.8,82.8,0,0,1-13.344,26.064c-2.665,3.443-5,7.142-7.482,10.728-3.952,5.711-8.546,10.462-15.213,13.312-4.852,2.074-9.337,4.913-14.75,5.479-2.054.215-1.787,1.593-1.386,3.13,1.867,7.144,5.268,13.641,8.417,20.242,3.286,6.882,6.851,13.638,9.145,20.953.075.239.425.391.671.607,1.373-.3,1.31-1.582,1.6-2.536,1.563-5.062,3.385-10.034,5.081-15.049C192.948,203.691,202.63,192,213.249,180.9a27.247,27.247,0,0,1,6.335-4.75c4.792-2.725,10.145-3.959,15.322-5.592,4.169-1.314,8.006-.1,11.059,3.168a13.237,13.237,0,0,1,1.853,2.1c7.247,12.216,10.819,24.752,3.84,38.465a80.554,80.554,0,0,1-28.889,31.731,58.508,58.508,0,0,1-28.915,9.648c-1.088.057-2.181.083-3.262.21-2.165.256-2.945,1.51-2.439,3.6a21.638,21.638,0,0,0,.727,2.705c3.717,9.633,5.516,19.791,8.171,29.714.241.9.409,1.831.718,2.709.807,2.287,1.378,2.457,3.314,1.087a3.745,3.745,0,0,0,.354-.3c16.8-15.329,37.723-23.359,57.953-32.567,5.728-2.608,11.644-2.509,16.505,2.278,4.838,4.765,5.63,10.486,3.469,16.809a30.515,30.515,0,0,1-5.34,9.21c-7.141,8.949-17.059,13.226-27.336,17.112-8.341,3.154-17,5.1-25.618,7.205-4.254,1.04-8.649.994-13.006,1.156-4.152.154-4.684.7-3.622,4.816,2.525,9.789,4.274,19.815,8.63,29.064a13.851,13.851,0,0,1,.977,2.623c.673,2.79.174,3.984-2.4,5.275-3.615,1.815-7.285,3.521-10.941,5.251-2.321,1.1-2.835.915-3.543-1.747a147.155,147.155,0,0,1-4.54-23.361c-.475-4.793-1.342-9.555-2.212-14.3-.6-3.261-1.272-3.447-4.485-2.352a146.547,146.547,0,0,1-30.494,6.732,30.605,30.605,0,0,1-7.926-.1c-11.866-1.72-23.736-3.4-35.6-5.15a47.619,47.619,0,0,1-10.841-2.78c-3.981-1.593-5.745-4.576-5.611-8.77.08-2.515.337-5.085,1.7-7.209,6.078-9.457,13.351-17.282,25.565-18.243,3.092-.244,6.13-1.181,9.221-1.4a48.933,48.933,0,0,1,22.825,3.852c9.473,4,18.957,7.963,28.209,12.457.676.328,1.309.865,2.18.518.809-.849.286-1.8-.012-2.6-3.672-9.809-5.32-20.174-8.316-30.166-.268-.895-.449-1.816-.728-2.708-1.044-3.33-1.134-3.126-4.545-2.268-15.38,3.871-30.489,9.447-46.514,9.788a90.482,90.482,0,0,1-40.423-8.147c-6.367-2.963-11.316-7.718-12.56-15.244a10.67,10.67,0,0,1,2.583-9.535,76.6,76.6,0,0,1,9.563-8.9,20.6,20.6,0,0,1,9.293-4.189,190.2,190.2,0,0,1,25.987-2.723c7.456-.179,14.547,1.39,21.54,3.646a166.63,166.63,0,0,1,22.562,8.974c.914.45,1.915,1.46,2.958.472.763-.722.266-1.767.058-2.649a22.292,22.292,0,0,0-1.007-3.6c-4.72-11.156-9.245-22.391-13.688-34.259a48.435,48.435,0,0,1-9.459,8.474c-5.175,3.665-11.076,5-17.069,5.86s-12.049,1.361-18.036,2.426a40.07,40.07,0,0,1-10.718.165,124.146,124.146,0,0,0-15.387-.746,29.776,29.776,0,0,1-16.063-4.238c-3.1-1.8-6.174-3.638-9.267-5.447-7.413-4.335-12.261-10.664-15.636-18.555-2.516-5.881-3.107-12.032-4.116-18.141-.749-4.54,2.958-9.594,8.036-11.323a50.332,50.332,0,0,1,17.474-2.569c19.3.433,37.391,6.376,55.328,12.631,7.187,2.506,13.4,7.254,19.5,11.863a86.888,86.888,0,0,0,9.956,7.016c.218-3.051-1.187-9.478-3.222-14.287-1.76-4.159-3.625-8.273-5.508-12.378q-7.2-15.708-14.465-31.388c-.456-.988-1.019-1.926-1.536-2.886-.647-1.2-1.5-1.465-2.651-.631-6.336,4.568-13.968,5.093-21.238,6.5-9.623,1.866-19.427,2.592-29.174,3.628a21.481,21.481,0,0,1-7.895-.372c-7.386-1.985-14.953-3.021-22.446-4.449-5.513-1.051-10.789-2.7-15.521-6.074-3.779-2.7-8.064-4.692-12.153-6.949a42.659,42.659,0,0,1-7.22-5.144c-3.122-2.7-4.04-6.1-3.032-10.115C2.317,92.841,7.1,87.29,13.436,82.907a9.862,9.862,0,0,1,3.8-1.708c8.585-1.425,17.191-3.752,25.933-2.059,9.507,1.841,19.215,1.884,28.693,3.626A54.383,54.383,0,0,1,94.455,92.41c3.138,2.3,6.272,4.616,9.476,6.824,1.354.933,2.668,2.1,4.412,2.268.685-1.441-.165-2.3-.667-3.2-2.645-4.771-5.29-9.567-8.807-13.757-4.325-5.153-7.773-10.9-11.536-16.432-2.454-3.608-2.118-5.589,1.184-8.467a34.336,34.336,0,0,1,10.15-5.674c3.557-1.415,5.236-.784,6.512,2.872C107.715,64.094,111.556,70.685,115.16,77.567Z" transform="translate(145.58 19.426)" fill="#df058d"/>
  </g>
</svg>
