<svg xmlns="http://www.w3.org/2000/svg" width="200.142" height="166.679" viewBox="0 0 200.142 166.679">
  <g id="Group_63" data-name="Group 63" transform="matrix(0.883, -0.469, 0.469, 0.883, -296.484, 250.371)">
    <path id="Path_55" data-name="Path 55" d="M496.461,76.763a102.9,102.9,0,0,0-7.236-12.771,23.464,23.464,0,0,0-6.114-6.455c-4.816-3.315-9.928-5.7-15.946-5.8-4.835-.081-9.658-.274-14.362,1.126-4.919,1.465-9.73,3.236-14.526,5.066a88.411,88.411,0,0,1-17.533,4.584,76.226,76.226,0,0,1-9.794,1.256,9.655,9.655,0,0,1-2.973-.131c-3.488-1-7.114-1.081-10.664-1.659-2.8-.456-5.178-1.911-7.628-3.116a65.584,65.584,0,0,1-23.42-18.849c-3.331-4.305-6.546-8.685-9.592-13.17A172.25,172.25,0,0,1,341.118-.482c-.093-.21-.2-.418-.272-.634-.611-1.7-.477-2.238,1.21-2.819,2.183-.752,4.212-1.849,6.367-2.639,1.585-.581,3.135-1.227,4.691-1.875,1.96-.816,2.6-.556,3.369,1.385,3.783,9.573,8.774,18.567,13.279,27.794a42.228,42.228,0,0,0,7.5,10.4,94.686,94.686,0,0,0,10.323,9.457,37.9,37.9,0,0,0,13.257,6.644,42.634,42.634,0,0,0,20.938.574,88.14,88.14,0,0,0,15.085-4.789A92.076,92.076,0,0,1,450.431,38.7c5.062-1.229,10.084-2.627,15.16-3.794,11.4-2.621,21.38.384,30.125,7.9a43.97,43.97,0,0,1,10.148,13.24q3.416,6.522,6.568,13.171c1.338,2.842,2.37,5.816,3.782,8.631.7,1.387.474,1.81-.966,2.52-3.438,1.695-6.9,3.347-10.351,5.01a9.843,9.843,0,0,1-1.068.424c-2.284.785-2.5.711-3.576-1.407C499.111,82.146,498,79.871,496.461,76.763Z" fill="#df058d"/>
  </g>
</svg>
