<svg xmlns="http://www.w3.org/2000/svg" width="122.811" height="112.249" viewBox="0 0 122.811 112.249">
  <g id="Group_59" data-name="Group 59" transform="translate(-215.153 -24.55)">
    <path id="Path_63" data-name="Path 63" d="M336.324,70.791c-.792,11.27-5.478,23.073-9.334,35.08a29.413,29.413,0,0,1-9.623,13.725c-8.247,6.746-17.16,12.409-27.448,15.556-10.158,3.107-20.086,1.367-29.826-1.5-9.766-2.878-18.5-7.948-26.754-14.009-13.845-10.173-19.319-24.283-17.994-40.945,1.311-16.492,3.693-32.909,9.018-48.728,1.767-5.25,2.4-5.886,7.844-5.179a55.429,55.429,0,0,1,9.436,2.041,250.2,250.2,0,0,0,37.041,8.378c18.109,2.756,35.632,7.925,52.934,13.841,5.5,1.879,6.837,4.484,6.2,10.524C337.474,62.82,336.962,66.052,336.324,70.791Z" fill="#df058d"/>
  </g>
</svg>
