<svg xmlns="http://www.w3.org/2000/svg" width="35.469" height="36.976" viewBox="0 0 35.469 36.976">
  <g id="Group_58" data-name="Group 58" transform="translate(-19.901 -125.469)">
    <path id="Path_57" data-name="Path 57" d="M55.327,139.91c-.2,2.891-.354,5.058-.509,7.226-.279,3.911-2.4,6.749-5.456,8.909a66.353,66.353,0,0,1-8.649,5.128,11.017,11.017,0,0,1-11.037-.442c-4.192-2.441-7.822-5.589-9.026-10.443-1.583-6.377-.8-12.47,3.735-17.661a5.633,5.633,0,0,1,1.832-1.25c2.333-1.166,4.632-2.371,6.848-3.77a12.493,12.493,0,0,1,9.995-1.757,4.958,4.958,0,0,1,1.24.384c3.581,2.02,7.127,4.064,9.22,7.861C54.654,136.148,55.583,138.211,55.327,139.91Z" fill="#2c49d8"/>
  </g>
</svg>
