<svg xmlns="http://www.w3.org/2000/svg" width="502.766" height="416.196" viewBox="0 0 502.766 416.196">
  <g id="Group_62" data-name="Group 62" transform="translate(282.808 212.856) rotate(120)">
    <path id="Path_61" data-name="Path 61" d="M-90.826,109.323a37.265,37.265,0,0,0-.191-5.663C-98.143,64.773-98.6,25.5-96.038-13.7A147.054,147.054,0,0,1-76.986-77.875c11.663-20.31,22.3-41.228,34.414-61.256,9.472-15.656,19.09-31.388,32.347-44.411a81.859,81.859,0,0,1,16.539-12.65c4.2-2.424,7.485-1.989,10.972,1.532,11.37,11.476,24.223,21.73,34.194,34.289,19.3,24.31,36.84,49.87,45.806,80.356,5.269,17.912,11.235,35.623,16.153,53.653,6.831,25.045,8.322,50.549,6.481,76.291-2.259,31.6-5.581,63.118-10.747,94.381-6.118,37.021-18.487,71.7-40.618,102.429q-1.942,2.7-4.06,5.266c-3.882,4.712-8.659,6.132-14.413,3.792A35.368,35.368,0,0,1,45.69,254C25.374,242.315,3.4,233.585-15.953,220.242c-25.6-17.65-48.006-38.316-60.554-67.78a155.943,155.943,0,0,1-5.888-17.036c-1.163-3.936-1.919-8.035-4.506-11.409Q-88.863,116.673-90.826,109.323Z" fill="#0fa958"/>
  </g>
</svg>
