<svg xmlns="http://www.w3.org/2000/svg" width="229.964" height="201.157" viewBox="0 0 229.964 201.157">
  <g id="Group_39" data-name="Group 39" transform="translate(-293.83 282.266) rotate(-56)">
    <path id="Path_69" data-name="Path 69" d="M379.3,320.524a12.352,12.352,0,0,0-2.35-4.4c-1.576-1.648-3.922-2.288-6.174-2.651-7.533-1.215-15.369-.134-22.763-2.018s-14.648-8.4-13.4-15.932l17.623,1.785c2.76.279,5.69.53,8.174-.7,5.267-2.615,5.357-10.784,1.462-15.189s-10.119-5.841-15.964-6.481c-4.046-.443-8.248-.655-11.878-2.5s-6.535-5.895-5.558-9.846c1.021-4.129,5.761-6.315,10.014-6.28s8.314,1.663,12.5,2.438,9.011.489,11.963-2.573a8.3,8.3,0,0,0,1.985-7.816c-1.345-4.865-6.692-7.343-11.567-8.653s-10.284-2.318-13.546-6.171a21.286,21.286,0,0,1-3.361-6.68,4.415,4.415,0,0,1-.386-2.49c.349-1.453,2.018-2.142,3.5-2.348,4.833-.672,9.566,1.382,14.316,2.5s10.538.957,13.526-2.9c3.12-4.029,1.5-10.059-1.583-14.114s-7.408-7.068-10.331-11.242c-6.782-9.686-4.5-22.879-1.153-34.22q2.919-9.9,6.624-19.554c1.5-3.915,3.627-8.275,7.687-9.327a3.405,3.405,0,0,1,2.826.311,3.812,3.812,0,0,1,1.123,1.518c2.129,4.467,1.524,9.744.286,14.535s-3.071,9.5-3.282,14.441,1.63,10.389,5.983,12.742c6.441,3.482,14.072-1.255,19.954-5.615a15.033,15.033,0,0,1,5.571-2.995c2.078-.447,4.538.167,5.628,1.991,1.158,1.937.429,4.425-.5,6.481a39.441,39.441,0,0,1-9.5,13c-5.282,4.757-12.554,9.5-12,16.584.437,5.547,5.907,9.465,11.336,10.685s11.1.555,16.625,1.248,11.421,3.3,13.413,8.5a3.889,3.889,0,0,1-.1,3.63,4.664,4.664,0,0,1-2.967,1.456,101.386,101.386,0,0,1-27.708,1.9c-4.666-.323-9.763-.866-13.642,1.748-5.793,3.9-5.392,13.292-.682,18.451s12.123,6.868,19.1,7.2,14.054-.436,20.9.94c4.73.95,10.165,4.566,9,9.247-1.044,4.181-6.363,5.3-10.661,5.609l-28.919,2.09c-4.183.3-8.95.925-11.31,4.392-3.127,4.594.17,10.935,4.4,14.542a31.61,31.61,0,0,0,26.328,6.835c3.135-.63,6.265-1.75,9.442-1.39s6.444,2.9,6.15,6.086c-.411,4.452-6.36,5.5-10.832,5.489a194.173,194.173,0,0,0-24.449,1.464c-1.463.181-3.255.672-3.532,2.12a3.221,3.221,0,0,0,.545,2.106c1.561,2.8,3.941,5.031,5.884,7.576,2,2.623,3.894,6.273,2.8,9.649-.945,2.911-3.688,4.79-6.62,3.524C383.358,338.707,381.3,325.923,379.3,320.524Z" fill="#0fa958"/>
  </g>
</svg>
