<svg xmlns="http://www.w3.org/2000/svg" width="502.941" height="502.38" viewBox="0 0 502.941 502.38">
  <g id="Group_64" data-name="Group 64" transform="translate(420.03 616.13) rotate(167)">
    <path id="Path_59" data-name="Path 59" d="M90.726,528.608c-3.85,9.66-7.262,17.93-10.449,26.286C75.2,568.2,68.557,580.532,59.2,591.393c-6.03,7-11.788,14.251-17.385,21.6C29.99,628.54,14.735,638.663-4.337,643.013c-26.635,6.076-53.209,4.811-79.146-2.814-25.1-7.38-44.161-34.543-44.363-60.762-.115-14.886-.246-29.711,4.374-44.248a116.1,116.1,0,0,1,26.752-45.366c4.239-4.474,8.811-8.643,12.884-13.257,4.5-5.1,4.1-6.983-2.2-9.469-12.512-4.942-24.008-11.666-35.036-19.249-8.721-6-16.882-12.7-22.839-21.567-16.295-24.264-17.768-50.226-8.346-77.3a71.044,71.044,0,0,1,17.029-27.2c7.615-7.622,14.69-15.788,23.482-22.2,9.016-6.57,19.14-10.347,30.107-10.494,18.021-.241,35.929.968,52.654,8.991,10.043,4.819,19.031,11.306,27.686,18.075,6.845,5.354,13.481,11.038,20.345,16.413s13.388,11.133,18.97,18.644c.709-5.683,1.535-11.354,2.106-17.05A127.973,127.973,0,0,1,71.842,261.2c14.145-16.153,33.085-24.665,53.8-29.618a139.5,139.5,0,0,1,40.534-3.194,44.423,44.423,0,0,1,16.353,4.018c20.72,9.589,37.19,23.6,46.691,44.865a29.731,29.731,0,0,0,2.067,4.132c19.469,29.922,11.8,78.281-2.686,101.72-5.18,8.382-12.051,15.33-19.112,22.041-6.395,6.078-6.549,5.834-.9,13.014,16.519,21,32.942,42.029,44.779,66.246a75.83,75.83,0,0,1,8.048,34.04,117.585,117.585,0,0,1-8.008,44.317c-7.7,19.476-36.8,40.409-59.15,39.286-13.1-.659-26.132-.889-38.911-4.288a51.954,51.954,0,0,1-22.69-12.484c-15.827-14.876-30-30.994-38.895-51.145C93.149,532.759,92.307,531.474,90.726,528.608ZM29.781,454.234c0,2.564.008,5.13,0,7.7-.04,10.255,5.285,16.778,14.38,20.672,5.869,2.512,12.085,1.889,18.217,1.956,4.311.047,7.829-1.706,11.14-4.457,10.294-8.555,15.522-20.27,20.027-32.3,1.577-4.21,1.487-9.067,2.007-13.646a11.264,11.264,0,0,0-2.292-7.924C84.836,414.18,82.222,412.54,67.5,411.17c-3.565-.332-7.174-.241-10.763-.232-8.062.02-14.153,3.414-18.618,10.262C31.524,431.312,29.56,442.464,29.781,454.234Z" transform="translate(30.478 -43.98)" fill="#2c49d8"/>
  </g>
</svg>
