<svg xmlns="http://www.w3.org/2000/svg" width="86.399" height="81.584" viewBox="0 0 86.399 81.584">
  <g id="Group_36" data-name="Group 36" transform="translate(-89.961 -229.75)">
    <path id="Path_66" data-name="Path 66" d="M95.02,250.116c2.558-3.693,6.106-6.57,9.635-9.35,3.776-2.976,7.655-5.943,12.128-7.705a46.053,46.053,0,0,1,12.97-2.54q7.038-.612,14.106-.752a28.9,28.9,0,0,1,6.521.4c3.913.824,7.359,3.13,10.382,5.748A45.032,45.032,0,0,1,175.6,260.6a36.689,36.689,0,0,1-5.438,28.007,42.943,42.943,0,0,1-4.353,5.207,56.676,56.676,0,0,1-33.8,17.073,104.433,104.433,0,0,1-12.4.443,26.349,26.349,0,0,1-8.576-.981c-3.983-1.382-7.039-4.563-9.842-7.712-5.986-6.727-11.407-14.266-11.227-23.575C90.155,269.228,89.12,258.634,95.02,250.116Z" fill="#fe6b2b"/>
  </g>
</svg>
