<svg xmlns="http://www.w3.org/2000/svg" width="199.973" height="224.152" viewBox="0 0 199.973 224.152">
  <g id="Group_37" data-name="Group 37" transform="translate(-50.027 -53.795)">
    <path id="Path_67" data-name="Path 67" d="M102.809,54c6.318-1.291,12.4,3.791,15.1,9.647s3.08,12.48,4.7,18.722c5.366,20.631,24.038,36.388,27.091,57.486a193.625,193.625,0,0,1,15.461-82.36c10.778,6.094,11.878,20.964,11.23,33.329a536.2,536.2,0,0,1-6.933,62.289c12.483-23.1,28.318-48.718,54.185-53.21,5.966,10.88-1.371,24.014-8.469,34.191l-21.5,30.831a138.834,138.834,0,0,1,41.292,9.166c7.726,3.012,16.516,9.194,14.827,17.312l-48.569,3.1,24.13,16.544c10.9,7.477,23.182,17.944,21.02,30.988-26.04-2.012-49.117-16.782-70.953-31.112q.282,28.455.565,56.91c.025,2.49,0,5.146-1.367,7.225-2.623,3.979-9.028,3.587-12.6.428s-4.994-8.032-6.154-12.655a328.786,328.786,0,0,1-8.5-49.8q-4.556,20.031-9.11,40.063c-.988,4.344-2.049,8.846-4.8,12.346s-7.728,5.682-11.785,3.841q-1.773-29.435-1.027-58.948c-7.725,7.946-15.591,16-25.238,21.456s-21.5,8.043-31.941,4.343c-1.562-9.492,6-17.8,12.963-24.439l38.357-36.58a150.026,150.026,0,0,1-44,12.506c-7.734.96-17.4.3-20.753-6.737a94.539,94.539,0,0,1,57.724-21.509L73.726,134.59c-4.472-3.257-9.164-6.788-11.193-11.935-10.723-27.19,34.548,2.325,43.118-3.092C115.559,113.3,95.194,55.544,102.809,54Z" fill="#fe6b2b"/>
  </g>
</svg>
