<svg xmlns="http://www.w3.org/2000/svg" width="253.621" height="168.261" viewBox="0 0 253.621 168.261">
  <g id="Group_40" data-name="Group 40" transform="translate(94.186 -364.18) rotate(20)">
    <path id="Path_70" data-name="Path 70" d="M301.982,454.642c-8.978-19.9-18.4-40.42-34.714-54.929-11.473-10.2-25.645-16.773-39.592-23.2-12.621-5.812-25.576-11.715-39.429-12.8-16.81-1.32-33.49,4.647-47.99,13.253s-27.252,19.8-40.539,30.186C92.493,412.8,85.024,418.281,79.1,425.278c-6.846,8.088-13.113,19.879-13.1,30.645,27.464,3.19,55.575-4.348,82.925-6.564a666.015,666.015,0,0,1,97.589-.732Q274.355,450.464,301.982,454.642Z" fill="#fe6b2b"/>
  </g>
</svg>
