<svg xmlns="http://www.w3.org/2000/svg" width="530.962" height="457.165" viewBox="0 0 530.962 457.165">
  <g id="Group_61" data-name="Group 61" transform="matrix(-0.996, -0.087, 0.087, -0.996, 771.685, 383.363)">
    <path id="Path_60" data-name="Path 60" d="M486.279,284.1c-1.909-1.638-3.642-3.563-5.755-4.875-44.717-27.737-83.853-62.4-120.218-99.968A195.726,195.726,0,0,1,314.057,103.1c-9.6-29.658-20.721-58.845-29.638-88.7-6.97-23.337-13.885-46.885-14.876-71.6a108.893,108.893,0,0,1,2.312-27.617c1.364-6.308,4.73-9.158,11.32-9.45,21.481-.953,43.083-4.46,64.382-3.065,41.226,2.7,82.111,8.255,120.189,26.668,22.373,10.818,45.171,20.768,67.347,32.037,30.8,15.654,57.286,36.984,81.024,61.812,29.146,30.483,57.252,61.93,83.46,94.974,31.037,39.13,54.171,82.325,64.693,131.623.615,2.884,1.137,5.794,1.564,8.711,1.176,8.04-1.7,14.021-9.146,17.6a47.3,47.3,0,0,1-5.7,2.724c-29.684,9.588-57.935,23.45-88.4,30.608-40.3,9.47-80.7,13.084-120.972-.883a207.552,207.552,0,0,1-22.063-9.423c-4.921-2.371-9.639-5.29-15.278-5.757Q495.282,288.729,486.279,284.1Z" fill="#0fa958"/>
  </g>
</svg>
